<?xml version="1.0" encoding="UTF-8" standalone="no"?>
<svg
   xmlns:dc="http://purl.org/dc/elements/1.1/"
   xmlns:cc="http://creativecommons.org/ns#"
   xmlns:rdf="http://www.w3.org/1999/02/22-rdf-syntax-ns#"
   xmlns:svg="http://www.w3.org/2000/svg"
   xmlns="http://www.w3.org/2000/svg"
   xmlns:sodipodi="http://sodipodi.sourceforge.net/DTD/sodipodi-0.dtd"
   xmlns:inkscape="http://www.inkscape.org/namespaces/inkscape"
   version="1.1"
   width="400"
   height="400"
   id="svg2"
   inkscape:version="0.48.2 r9819"
   sodipodi:docname="Wikiprocess_exemplelogo.svg">
  <metadata
     id="metadata18">
    <rdf:RDF>
      <cc:Work
         rdf:about="">
        <dc:format>image/svg+xml</dc:format>
        <dc:type
           rdf:resource="http://purl.org/dc/dcmitype/StillImage" />
        <dc:title />
      </cc:Work>
    </rdf:RDF>
  </metadata>
  <defs
     id="defs16" />
  <sodipodi:namedview
     pagecolor="#ffffff"
     bordercolor="#666666"
     borderopacity="1"
     objecttolerance="10"
     gridtolerance="10"
     guidetolerance="10"
     inkscape:pageopacity="0"
     inkscape:pageshadow="2"
     inkscape:window-width="1366"
     inkscape:window-height="716"
     id="namedview14"
     showgrid="false"
     showguides="true"
     inkscape:guide-bbox="true"
     inkscape:zoom="1.18"
     inkscape:cx="217.40862"
     inkscape:cy="244.8745"
     inkscape:window-x="-8"
     inkscape:window-y="22"
     inkscape:window-maximized="1"
     inkscape:current-layer="svg2" />
  <path
     d="m 318.74188,57.337254 -33.56252,34.459832 c 27.14829,24.520714 44.28626,60.449674 44.28626,100.492644 0,73.89599 -58.34281,133.80097 -130.31308,133.80097 -71.96894,0 -130.311763,-59.90498 -130.311763,-133.80097 0,-40.04297 17.13797,-75.97191 44.286263,-100.492632 L 79.564517,57.335915 c -35.701473,33.371854 -58.10983,81.475335 -58.10983,134.953815 0,100.76836 79.557303,182.45586 177.697853,182.45586 98.14187,0 177.69917,-81.6875 177.69917,-182.45586 0,-53.47713 -22.40967,-101.580622 -58.10983,-134.952476 z"
     id="path6"
     style="fill:#999999"
     inkscape:connector-curvature="0" />
  <path
     inkscape:connector-curvature="0"
     d="m 211.59391,12.74893 c -1.16312,0.178932 -2.15803,1.031927 -2.46139,2.232382 l -1.91987,7.570685 c -2.73947,-0.344633 -5.5347,-0.53383 -8.36869,-0.53383 -3.84355,0 -7.61056,0.343702 -11.27313,0.970601 l -2.26447,-7.522156 c -0.47186,-1.582561 -2.13597,-2.454905 -3.74129,-1.989732 l -10.14089,2.911803 c -1.60531,0.465174 -2.4902,2.105738 -2.01834,3.688282 l 2.3137,7.764807 c -4.93829,2.22002 -9.54398,4.995349 -13.73451,8.298636 l -6.15344,-5.580954 c -1.23428,-1.113691 -3.15311,-1.022671 -4.28281,0.19412 l -7.138,7.716277 c -1.1297,1.216791 -1.03737,3.059923 0.1969,4.173583 l 5.80887,5.241244 c -3.70076,4.860613 -6.70634,10.278662 -8.9102,16.063443 l -8.3687,-1.795612 c -1.63465,-0.352118 -3.23643,0.669404 -3.59361,2.280912 l -2.26447,10.142778 c -0.35718,1.611493 0.67904,3.190606 2.3137,3.542693 l 8.07333,1.747082 c -0.23368,2.217085 -0.34459,4.467978 -0.34459,6.745675 0,3.342764 0.24102,6.645242 0.7384,9.851602 l -7.58105,2.08679 c -1.61024,0.44831 -2.5223,2.100849 -2.06756,3.688279 l 2.8552,9.99719 c 0.45476,1.58742 2.13107,2.53509 3.74131,2.08679 l 7.6795,-2.13532 c 2.30472,5.2589 5.29099,10.13307 8.86097,14.55901 l -5.51349,5.28977 c -1.1989,1.15064 -1.2164,2.99163 -0.0492,4.17359 l 7.38414,7.47362 c 1.16717,1.18191 3.08389,1.19921 4.28281,0.0485 l 5.80885,-5.53242 c 5.06874,3.76719 10.72598,6.82625 16.78661,9.02658 l -1.87072,7.42518 c -0.40448,1.60059 0.59164,3.24104 2.21524,3.63975 l 10.23934,2.52356 c 1.6236,0.39874 3.23838,-0.58329 3.64285,-2.18385 l 1.9691,-7.76481 c 2.10787,0.20193 4.23824,0.33971 6.39959,0.33971 5.19925,0 10.26224,-0.61716 15.11288,-1.74708 l 2.80597,7.47363 c 0.57876,1.5477 2.26981,2.36621 3.83975,1.79561 l 9.94398,-3.63975 c 1.56994,-0.57056 2.35096,-2.23767 1.77219,-3.78535 l -2.8552,-7.61921 c 5.53886,-2.8964 10.61011,-6.54653 15.06365,-10.8222 l 6.30113,4.95006 c 1.31006,1.02613 3.19269,0.80621 4.23359,-0.48529 l 6.59649,-8.15305 c 1.04089,-1.29149 0.81778,-3.1474 -0.49227,-4.17358 l -6.30114,-4.90153 c 2.53042,-4.10417 4.59266,-8.5153 6.15345,-13.15164 l 7.82719,1.50442 c 1.64221,0.31619 3.22366,-0.75902 3.54439,-2.37797 l 2.01834,-10.239839 c 0.32072,-1.61893 -0.72073,-3.1294 -2.36293,-3.44563 l -7.82719,-1.504429 c 0.0945,-1.417994 0.1476,-2.829232 0.1476,-4.270644 0,-3.838811 -0.33221,-7.60364 -0.98456,-11.258969 l 7.63029,-2.523562 c 1.58776,-0.520428 2.44778,-2.171599 1.91988,-3.736814 l -3.34748,-9.900128 c -0.52791,-1.565259 -2.252,-2.413114 -3.83976,-1.89267 l -7.33491,2.426501 c -2.17188,-4.665747 -4.88779,-9.017363 -8.07333,-13.00605 l 5.41512,-5.338305 c 1.18144,-1.16806 1.18483,-3.008893 0,-4.173583 l -7.4826,-7.376566 c -1.18485,-1.164706 -3.10136,-1.168044 -4.2828,0 l -5.46427,5.435365 c -4.62794,-3.481936 -9.73303,-6.362136 -15.2113,-8.541297 l 1.96909,-7.764807 c 0.40448,-1.60059 -0.59164,-3.240999 -2.21523,-3.639752 l -10.23935,-2.523563 c -0.40591,-0.0997 -0.84298,-0.108241 -1.23069,-0.04845 z m -12.74995,56.877206 c 9.16492,0 16.5897,7.627772 16.5897,16.985513 2e-5,9.357742 -7.42477,16.936981 -16.5897,16.936981 -9.16495,0 -16.58971,-7.579239 -16.58971,-16.936981 0,-9.357741 7.42476,-16.985513 16.58971,-16.985513 z"
     style="fill:#ff5555;fill-opacity:1;fill-rule:evenodd;stroke:none"
     id="path1902" />
  <path
     inkscape:connector-curvature="0"
     d="m 248.31771,140.96529 c -0.20089,-0.008 -0.43367,0.014 -0.63997,0.0485 l -10.38703,1.74708 c -1.65036,0.27171 -2.78623,1.77008 -2.5106,3.3971 l 1.27992,7.47362 c -8.69903,3.11872 -16.28448,8.57967 -21.95552,15.57815 l -6.5965,-3.78534 c -1.4448,-0.83198 -3.24196,-0.35664 -4.08589,1.06765 l -5.36581,8.97807 c -0.84392,1.42432 -0.36179,3.24458 1.08301,4.07652 l 6.89186,3.97946 c -1.83295,5.1196 -2.80597,10.61665 -2.80597,16.35463 0,4.00033 0.51293,7.87366 1.4276,11.59867 l -6.89186,2.81474 c -1.54777,0.62668 -2.30943,2.35662 -1.67375,3.88241 l 4.03667,9.65747 c 0.63569,1.52584 2.39043,2.22814 3.93821,1.60149 l 7.138,-2.91179 c 4.42027,6.75176 10.44429,12.36593 17.57426,16.30609 l -2.55983,7.2795 c -0.54576,1.5593 0.28894,3.24731 1.87064,3.78535 l 9.99321,3.3971 c 1.58172,0.53803 3.294,-0.28488 3.83975,-1.84415 l 2.51061,-7.13391 c 2.81896,0.48881 5.70335,0.77648 8.66406,0.77648 7.61265,0 14.80634,-1.69484 21.26633,-4.70741 l 4.38125,6.21184 c 0.95444,1.35486 2.85929,1.66882 4.2336,0.72796 l 8.66405,-5.92067 c 1.37433,-0.94089 1.74206,-2.77024 0.78765,-4.12505 l -4.43049,-6.26038 c 5.84403,-5.6413 10.26578,-12.68729 12.74995,-20.57673 l 7.53183,1.11619 c 1.655,0.24276 3.19969,-0.89202 3.44593,-2.52357 l 1.57528,-10.28836 c 0.24625,-1.63155 -0.90484,-3.10579 -2.55984,-3.34858 l -7.77795,-1.16464 c -0.37719,-11.19523 -4.57048,-21.46638 -11.32236,-29.55479 l 5.07045,-5.77508 c 1.09522,-1.24704 0.96959,-3.09386 -0.29536,-4.17358 l -7.97488,-6.84274 c -1.26497,-1.0797 -3.18757,-0.90728 -4.28279,0.33971 l -4.972,5.67802 c -7.5878,-4.58532 -16.54577,-7.18245 -26.09065,-7.18245 -0.23163,0 -0.45831,-0.003 -0.68919,0 l -1.23068,-7.23098 c -0.24117,-1.42359 -1.44904,-2.47453 -2.8552,-2.52355 z m 4.77507,44.30792 c 8.18299,0 14.86674,6.54053 14.86674,14.60754 0,8.067 -6.68377,14.65608 -14.86674,14.65608 -8.18296,-4e-5 -14.81751,-6.58906 -14.81751,-14.65608 0,-8.06704 6.63455,-14.60754 14.81751,-14.60754 z"
     style="fill:#ff5555;fill-opacity:1;fill-rule:evenodd;stroke:none"
     id="path2822" />
  <path
     inkscape:connector-curvature="0"
     d="m 119.96431,143.92768 c -0.1964,0.043 -0.41608,0.12305 -0.60698,0.20853 l -9.6093,4.31325 c -1.52826,0.67963 -2.24898,2.41626 -1.57145,3.92096 l 3.12558,6.90825 c -7.62965,5.21422 -13.590369,12.41358 -17.310484,20.61725 l -7.338564,-1.99702 c -1.608061,-0.4402 -3.226956,0.47353 -3.683899,2.06477 l -2.924911,10.04203 c -0.456927,1.59127 0.46921,3.2308 2.077262,3.67096 l 7.673366,2.11027 c -0.480823,5.41653 -0.03427,10.98115 1.414606,16.53318 1.010106,3.87071 2.484455,7.489 4.310075,10.86235 l -5.957793,4.46376 c -1.339376,0.9972 -1.639535,2.86341 -0.639179,4.17924 l 6.344436,8.32524 c 1.000376,1.31588 2.875588,1.55233 4.214982,0.55517 l 6.171453,-4.61982 c 5.98189,5.41682 13.22831,9.32796 21.12216,11.34008 l -0.63876,7.68998 c -0.13435,1.64658 1.09954,3.06912 2.76584,3.19034 l 10.52718,0.76367 c 1.66631,0.1212 3.11532,-1.10741 3.24966,-2.75395 l 0.6279,-7.53669 c 2.85104,-0.23883 5.7146,-0.6888 8.57937,-1.4364 7.36596,-1.92225 13.89858,-5.37861 19.38855,-9.92476 l 5.80781,4.90426 c 1.26562,1.06996 3.18802,0.89276 4.28022,-0.36464 l 6.88829,-7.91654 c 1.09221,-1.25742 0.9861,-3.12034 -0.27948,-4.19027 l -5.8677,-4.93878 c 4.23019,-6.93414 6.7295,-14.86833 7.14103,-23.12939 l 7.56961,-0.82181 c 1.66267,-0.18301 2.87077,-1.67106 2.69705,-3.31192 L 198.4386,187.2965 c -0.1737,-1.64086 -1.65974,-2.77667 -3.32243,-2.59369 l -7.81999,0.83707 c -3.19183,-10.7372 -9.84276,-19.61669 -18.41822,-25.7381 l 3.44792,-6.86824 c 0.74483,-1.4832 0.15696,-3.23844 -1.33964,-3.96377 l -9.44429,-4.60729 c -1.49661,-0.72528 -3.31337,-0.073 -4.05823,1.41013 l -3.37715,6.74949 c -8.49974,-2.52077 -17.82322,-2.7718 -27.0588,-0.36166 -0.22413,0.0585 -0.44422,0.11282 -0.66686,0.17403 l -3.01667,-6.68591 c -0.59282,-1.31656 -2.02691,-2.02845 -3.39989,-1.72081 z m 15.80836,41.6664 c 7.91783,-2.06626 16.03652,2.57465 18.07349,10.38024 2.03697,7.80559 -2.76643,15.86885 -10.68424,17.9351 -7.9178,2.06621 -16.00113,-2.63403 -18.0381,-10.43963 -2.03698,-7.80564 2.73107,-15.80946 10.64885,-17.87571 z"
     style="fill:#ff5555;fill-opacity:1;fill-rule:evenodd;stroke:none"
     id="path2822-1" />
</svg>
